<?xml version="1.0" encoding="UTF-8"?>
<svg xmlns="http://www.w3.org/2000/svg" xmlns:xlink="http://www.w3.org/1999/xlink">
   <defs>
      <style type="text/css">
      </style>
   </defs>
   
   <svg viewBox="0 0 100 100">
		<g id="03">
			<path d="M36.3,56.6L34,70c-0.2,1.1,0.2,2.1,1.1,2.7c0.9,0.6,2,0.7,3,0.2L50,66.6l11.9,6.3c0.4,0.2,0.9,0.3,1.3,0.3
				c0.6,0,1.2-0.2,1.6-0.5c0.9-0.6,1.3-1.7,1.1-2.7l-2.3-13.3l9.6-9.4c0.8-0.8,1-1.9,0.7-2.9c-0.3-1-1.2-1.8-2.3-1.9l-13.3-1.9
				l-6-12.1c-0.5-1-1.5-1.6-2.5-1.6s-2.1,0.6-2.5,1.6l-6,12.1l-13.3,1.9c-1.1,0.2-1.9,0.9-2.3,1.9c-0.3,1-0.1,2.1,0.7,2.9L36.3,56.6
				z M57.9,56.1l1.6,9.2L51.3,61c-0.4-0.2-0.9-0.3-1.3-0.3s-0.9,0.1-1.3,0.3l-8.2,4.3l1.6-9.2c0.2-0.9-0.1-1.8-0.8-2.5l-6.6-6.5
				l9.2-1.3c0.9-0.1,1.7-0.7,2.1-1.5l4.1-8.3l4.1,8.3c0.4,0.8,1.2,1.4,2.1,1.5l9.2,1.3l-6.6,6.5C58.1,54.3,57.8,55.2,57.9,56.1z"/>
		</g>
   </svg>

   <svg viewBox="0 0 100 100">
	    <g id="04">
			<path d="M29,67.4c0,2.2,1.4,3.6,3.6,3.6c1.1,0,2.3,0,3.4,0l2.8,0c1.1,0,2.2,0,3.3,0c0,0,0,0,0.1,0
				c1.1,0,2-0.4,2.7-1.2l24.9-24.9c1.5-1.5,1.5-3.4,0.1-4.9c-3.3-3.3-6.6-6.7-10-10c-0.6-0.6-1.5-0.8-2.1-0.9
				c-1.4-0.3-2.4,0.7-2.9,1.2C46.7,38.5,38.4,46.8,30.2,55c-0.8,0.8-1.2,1.7-1.2,2.8l0,4.5C29,64,29,65.7,29,67.4z M35.7,59.1
				c0-0.1,0-0.2,0.1-0.2c7-7,13.9-14,20.9-20.9l0.8-0.8l5.4,5.4l-5.3,5.3c-5.4,5.4-10.8,10.8-16.2,16.2c-0.2,0.2-0.3,0.3-0.6,0.3
				c-0.7,0-1.4,0-2.2,0c-0.5,0-1,0-1.4,0l-1.4,0l0-0.8C35.6,62.1,35.6,60.6,35.7,59.1z"/>
		</g>
   </svg>
   
   <svg viewBox="0 0 100 100">
	    <g id="05">
			<path class="st47" d="M67.3,31.9h-1.9c-1.5,0-2.8,1.3-2.8,2.8s1.3,2.8,2.8,2.8h1.9c0.4,0,0.7,0.3,0.7,0.7v27.9
					c0,0.4-0.3,0.7-0.7,0.7H32.7c-0.4,0-0.7-0.3-0.7-0.7V38.1c0-0.4,0.3-0.7,0.7-0.7h5.6l0,1.7c0,1.5,1.3,2.8,2.8,2.8
					c1.5,0,2.8-1.3,2.8-2.8l0-1.7h12.1l0,1.7c0,1.5,1.3,2.8,2.8,2.8c1.5,0,2.8-1.3,2.8-2.8l0-8.7c0-1.5-1.3-2.8-2.8-2.8
					c-1.5,0-2.8,1.3-2.8,2.8l0,1.4H43.9l0-1.4c0-1.5-1.3-2.8-2.8-2.8c-1.5,0-2.8,1.3-2.8,2.8l0,1.4h-5.6c-3.5,0-6.3,2.8-6.3,6.3
					v27.9c0,3.5,2.8,6.3,6.3,6.3h34.6c3.5,0,6.3-2.8,6.3-6.3V38.1C73.6,34.7,70.8,31.9,67.3,31.9z"/>
			<path class="st47" d="M41.1,46.8c-1.5,0-2.8,1.3-2.8,2.9c0,1.5,1.3,2.8,2.8,2.8s2.8-1.3,2.8-2.8C43.9,48,42.7,46.8,41.1,46.8z"
				/>
			<path class="st47" d="M41.1,55.8c-1.5,0-2.8,1.3-2.8,2.9c0,1.5,1.3,2.8,2.8,2.8s2.8-1.3,2.8-2.8C43.9,57.1,42.7,55.8,41.1,55.8z
				"/>
			<path class="st47" d="M50,52.4c0.8,0,1.5-0.3,2-0.9c0.5-0.5,0.8-1.3,0.8-2c0-0.8-0.3-1.5-0.9-2c-1.1-1.1-2.9-1.1-4,0
				c-0.5,0.5-0.8,1.2-0.8,2c0,0.8,0.3,1.5,0.9,2C48.6,52.2,49.3,52.4,50,52.4z"/>
			<path class="st47" d="M50,61.5c0.8,0,1.5-0.3,2-0.9c1.1-1.1,1.1-2.9-0.1-4c-1.1-1.1-2.9-1.1-4,0h0c-1.1,1.1-1.1,2.9,0.1,4
				C48.6,61.2,49.3,61.5,50,61.5z"/>
			<path class="st47" d="M58.9,46.8c-1.5,0-2.8,1.3-2.8,2.9c0,1.5,1.3,2.8,2.8,2.8s2.8-1.3,2.8-2.8C61.7,48,60.4,46.8,58.9,46.8z"
				/>
			<path class="st47" d="M58.9,55.8c-1.5,0-2.8,1.3-2.8,2.9c0,1.5,1.3,2.8,2.8,2.8s2.8-1.3,2.8-2.8C61.7,57.1,60.4,55.8,58.9,55.8z
				"/>
		</g>
   </svg>
   
   <svg viewBox="0 0 100 100">
	    <g id="06">
			<path class="st47" d="M30.2,51.7l10.2,2.5c1.5,0.4,3-0.6,3.4-2.1c0.4-1.5-0.6-3-2.1-3.4l-8.3-2.1l33.8-13.9L50.7,66.1L50,54.8
				c0-0.5,0.2-1,0.5-1.4l5.3-5.4c0.5-0.5,0.8-1.2,0.8-2c0-0.8-0.3-1.5-0.8-2c-0.5-0.5-1.2-0.8-2-0.8c0,0,0,0,0,0
				c-0.8,0-1.5,0.3-2,0.8l-5.3,5.4C45,51,44.2,53,44.4,55.2l0.9,13.6c0.2,2.3,1.8,4.1,4,4.5c0.3,0.1,0.7,0.1,1,0.1
				c1.9,0,3.6-1.1,4.4-2.8l18.4-36.9c0.9-1.9,0.6-4.1-0.8-5.6c-1.4-1.5-3.6-2-5.5-1.2L29.5,42.2c-2,0.8-3.2,2.8-3.1,5
				C26.6,49.4,28.1,51.1,30.2,51.7z"/>
		</g>
   </svg>
   
   <svg viewBox="0 0 100 100">
	    <g id="07">
			<path class="st47" d="M29.9,68.5h14.4c0.3,2.9,2.7,5.1,5.7,5.1s5.4-2.3,5.7-5.1h14.4c1.1,0,2.1-0.6,2.6-1.6c0.5-1,0.3-2.2-0.4-3
				c-2.9-3.4-4.4-8.2-4.4-14v-4.9c0-10.2-8-18.5-17.8-18.5c-4.9,0-9.5,2.1-12.9,5.8c-0.5,0.6-0.8,1.3-0.7,2c0,0.7,0.4,1.4,0.9,1.9
				c1.1,1,2.9,1,4-0.2c2.3-2.6,5.4-4,8.8-4c6.7,0,12.2,5.8,12.2,12.9v4.9c0,5,0.9,9.4,2.7,13.1H35.1c1.8-3.7,2.7-8.1,2.7-13.1v-4.9
				c0-1.7,0.3-3.3,0.9-4.9c0.6-1.4-0.2-3.1-1.6-3.6c-1.4-0.6-3.1,0.2-3.6,1.6c-0.9,2.2-1.3,4.5-1.3,6.9v4.9c0,5.9-1.5,10.6-4.4,14
				c-0.7,0.8-0.9,2-0.4,3C27.8,67.9,28.8,68.5,29.9,68.5z"/>
		</g>
   </svg>
   
   <svg viewBox="0 0 100 100">
	    <g id="08">
			<path class="st47" d="M45,63.5c4.2,0,8.3-1.4,11.6-4.1c0,0.7,0.3,1.4,0.8,1.9l11.4,11.4c0.5,0.5,1.2,0.8,2,0.8s1.5-0.3,2-0.8
				c0.5-0.5,0.8-1.2,0.8-2c0-0.8-0.3-1.5-0.8-2L61.3,57.4c-0.5-0.5-1.2-0.8-1.9-0.8c2.6-3.3,4.1-7.3,4.1-11.6
				c0-10.2-8.3-18.6-18.6-18.6c-5.3,0-10.4,2.3-13.9,6.3c-3,3.4-4.6,7.7-4.6,12.3C26.4,55.2,34.7,63.5,45,63.5z M45,32
				c7.1,0,12.9,5.8,12.9,12.9S52.1,57.9,45,57.9C37.8,57.9,32,52.1,32,45c0-3.2,1.1-6.2,3.2-8.5C37.7,33.6,41.3,32,45,32z"/>
		</g>
   </svg>
   
   <svg viewBox="0 0 100 100">
	    <g id="09">
			<path class="st47" d="M48.5,70.3c0.4,0.3,0.9,0.4,1.4,0.4c0.5,0,1-0.1,1.4-0.4c12.1-7.2,24.2-18.9,21.9-30.4
				c-1.1-5.5-5.4-9.6-10.9-10.4c-4.6-0.7-9.1,0.9-12.4,4.4c-3.4-3.6-8.1-5.3-12.8-4.4c-5.5,1-9.6,5.1-10.6,10.5
				C24.7,51.7,37.2,63.6,48.5,70.3z M32.1,41c0.6-3.7,3.5-5.5,6-5.9c0.4-0.1,0.9-0.1,1.4-0.1c1.5,0,5.4,0.5,8,5.1
				c0.5,0.9,1.4,1.4,2.4,1.4s2-0.5,2.4-1.4c2.1-3.7,5.5-5.6,9.1-5c3.2,0.5,5.7,2.9,6.3,6c1.1,5.3-3,14.3-17.8,23.6
				C35.4,55.5,31.3,46.2,32.1,41z"/>
		</g>
   </svg>
   
   <svg viewBox="0 0 100 100">
	    <g id="10">
			<path class="st47" d="M66.2,36.7h-3c-0.7,0-1.3-0.4-1.6-1l-0.7-1.3c-1.3-2.5-3.8-4-6.6-4h-8.6c-2.8,0-5.3,1.5-6.6,4l-0.7,1.3
					c-0.3,0.6-0.9,1-1.6,1h-3c-4.1,0-7.4,3.3-7.4,7.4v18c0,4.1,3.3,7.4,7.4,7.4h32.3c4.1,0,7.4-3.3,7.4-7.4v-18
					C73.6,40,70.3,36.7,66.2,36.7z M68,62.1c0,1-0.8,1.8-1.8,1.8H33.8c-1,0-1.8-0.8-1.8-1.8v-18c0-1,0.8-1.8,1.8-1.8h3
					c2.8,0,5.3-1.5,6.6-4l0.7-1.3c0.3-0.6,0.9-1,1.6-1h8.6c0.7,0,1.3,0.4,1.6,1l0.7,1.3c1.3,2.5,3.8,4,6.6,4h3c1,0,1.8,0.8,1.8,1.8
					V62.1z"/>
			<path class="st47" d="M50,41c-5.8,0-10.5,4.7-10.5,10.5c0,5.8,4.7,10.5,10.5,10.5c5.8,0,10.5-4.7,10.5-10.5
				C60.5,45.8,55.8,41,50,41z M50,56.5c-2.7,0-4.9-2.2-4.9-4.9s2.2-4.9,4.9-4.9s4.9,2.2,4.9,4.9S52.7,56.5,50,56.5z"/>
		</g>
   </svg>
   
   <svg viewBox="0 0 100 100">
	    <g id="11">
			<path class="st47" d="M33.5,73.2c0.8,0.5,1.9,0.5,2.8,0L50,65.8l13.7,7.5c0.4,0.2,0.9,0.3,1.3,0.3c0.5,0,1-0.1,1.4-0.4
				c0.8-0.5,1.4-1.4,1.4-2.4V32.7c0-3.5-2.8-6.3-6.3-6.3H39.5c-4.1,0-7.4,3.3-7.4,7.4v37C32.1,71.8,32.6,72.7,33.5,73.2z M37.7,66.1
				V33.8c0-1,0.8-1.8,1.8-1.8h22.1c0.4,0,0.7,0.3,0.7,0.7v33.4l-10.9-6C51.2,60,51.2,60,51.1,60c-0.2-0.1-0.4-0.1-0.5-0.2
				c-0.2,0-0.3,0-0.5,0c-0.2,0-0.3,0-0.5,0c-0.2,0-0.4,0.1-0.6,0.2c-0.1,0-0.2,0-0.3,0.1L37.7,66.1z"/>
		</g>
   </svg>
   
   <svg viewBox="0 0 100 100">
	    <g id="12">
			<path class="st47" d="M61.4,49.3c-1.5,0-2.8,1.3-2.8,2.8v13.9l-10.9-6c-0.8-0.5-1.8-0.5-2.7,0l-10.9,6V33.8c0-1,0.8-1.8,1.8-1.8
					h17.6c1.5,0,2.8-1.3,2.8-2.8s-1.3-2.8-2.8-2.8H35.9c-4.1,0-7.4,3.3-7.4,7.4v37c0,1,0.5,1.9,1.4,2.4c0.8,0.5,1.9,0.5,2.8,0.1
					l13.7-7.5l13.7,7.5c0.4,0.2,0.9,0.3,1.3,0.3c0.5,0,1-0.1,1.4-0.4c0.8-0.5,1.4-1.4,1.4-2.4V52.2C64.2,50.6,63,49.3,61.4,49.3z"/>
			<path class="st47" d="M68.8,34h-4.5v-4.8c0-1.5-1.3-2.8-2.8-2.8s-2.8,1.3-2.8,2.8V34h-4.8c-1.5,0-2.8,1.3-2.8,2.8
				s1.3,2.8,2.8,2.8h4.8v4.8c0,1.5,1.3,2.8,2.8,2.8s2.8-1.3,2.8-2.8v-4.8h4.5c1.5,0,2.8-1.3,2.8-2.8S70.3,34,68.8,34z"/>
		</g>
   </svg>
   
   <svg viewBox="0 0 100 100">
	    <g id="13">
			<path class="st47" d="M66.2,69.6c4.1,0,7.4-3.3,7.4-7.4V43.1c0-4.1-3.3-7.4-7.4-7.4H54.7c-0.5,0-0.9-0.2-1.3-0.5l-2.8-2.7
				c-1.4-1.3-3.2-2.1-5.2-2.1H33.8c-4.1,0-7.4,3.3-7.4,7.4v10.1c0,1.5,1.3,2.8,2.8,2.8s2.8-1.3,2.8-2.8V37.8c0-1,0.8-1.8,1.8-1.8
				h11.7c0.5,0,0.9,0.2,1.3,0.5l2.8,2.7c1.4,1.3,3.2,2.1,5.2,2.1h11.5c1,0,1.8,0.8,1.8,1.8v19.1c0,1-0.8,1.8-1.8,1.8H33.8
				c-1,0-1.8-0.8-1.8-1.8v-7.9c0-1.5-1.3-2.8-2.8-2.8s-2.8,1.3-2.8,2.8v7.9c0,4.1,3.3,7.4,7.4,7.4H66.2z"/>
		</g>
   </svg>
   
   <svg viewBox="0 0 100 100">
	    <g id="14">
			<path class="st47" d="M56.1,51c3.3-3.3,3.3-8.8,0-12.1c-1.6-1.6-3.8-2.5-6.1-2.5c-2.3,0-4.4,0.9-6.1,2.5
					c-1.6,1.6-2.5,3.8-2.5,6.1c0,2.3,0.9,4.4,2.5,6.1c1.6,1.6,3.8,2.5,6.1,2.5C52.3,53.5,54.4,52.7,56.1,51z M47,45
					c0-0.8,0.3-1.5,0.9-2.1c0.6-0.6,1.3-0.9,2.1-0.9c0.8,0,1.5,0.3,2.1,0.9c1.2,1.2,1.2,3,0,4.2c-1.1,1.1-3.1,1.1-4.2,0
					C47.3,46.5,47,45.8,47,45z"/>
			<path class="st47" d="M63.8,32.3c-3.7-3.8-8.6-5.9-13.8-5.9s-10.2,2.1-13.8,5.9c-3.6,3.7-5.5,8.8-5.3,13.8
				c0.1,1.5,1.3,2.7,2.8,2.7l0.1,0c1.5-0.1,2.8-1.4,2.7-2.9c-0.1-3.5,1.2-7,3.7-9.7c2.6-2.7,6.1-4.2,9.8-4.2s7.2,1.5,9.8,4.2
				c2.5,2.6,3.9,6.1,3.7,9.7C63.1,56.5,53.4,64.7,50,67.3c-2.9-2.2-9.1-7.5-12-14.6c-0.2-0.6-0.4-1.1-0.6-1.7
				c-0.5-1.5-2-2.3-3.5-1.8c-0.7,0.2-1.3,0.7-1.6,1.4c-0.3,0.7-0.4,1.4-0.2,2.1c0.2,0.7,0.5,1.4,0.8,2.1C37.3,66,48,72.9,48.5,73.2
				c0,0,0.1,0,0.1,0.1c0,0,0.1,0,0.2,0.1c0.4,0.2,0.8,0.3,1.1,0.3l0.1,0c0.4,0,0.8-0.1,1.2-0.3l0.3-0.1
				c0.7-0.4,16.9-10.9,17.6-27.1C69.3,41.1,67.4,36,63.8,32.3z M51.1,72.8C51.1,72.8,51.1,72.8,51.1,72.8L51.1,72.8L51.1,72.8z"/>
		</g>
   </svg>
   
   <svg viewBox="0 0 100 100">
	    <g id="15">
			<path class="st47" d="M65.8,26.4H41.1c-5.4,0-9.7,4.4-9.7,9.7v34.6c0,1.5,1.3,2.8,2.8,2.8s2.8-1.3,2.8-2.8V36.1
				c0-2.3,1.8-4.1,4.1-4.1h20.3l-3.6,7.7c-0.4,0.8-0.4,1.6,0,2.4l3.6,7.7H42.8c-1.5,0-2.8,1.3-2.8,2.8c0,1.5,1.3,2.8,2.8,2.8h23
				c1,0,1.9-0.5,2.4-1.3c0.5-0.8,0.6-1.8,0.2-2.7l-5-10.5l5-10.5c0.4-0.9,0.4-1.9-0.2-2.7v0C67.7,26.9,66.8,26.4,65.8,26.4z"/>
		</g>
   </svg>
   
   <svg viewBox="0 0 100 100">
	    <g id="16">
			<path class="st47" d="M50.1,38.5c-6.2,0-11.3,5.1-11.3,11.3C38.8,56,43.9,61,50.1,61S61.4,56,61.4,49.8
					C61.4,43.5,56.3,38.5,50.1,38.5z M50.1,55.3c-3,0-5.5-2.5-5.5-5.5c0-3,2.5-5.5,5.5-5.5s5.5,2.5,5.5,5.5
					C55.6,52.8,53.2,55.3,50.1,55.3z"/>
			<path class="st47" d="M76.7,49.8c0-0.2,0-0.5-0.1-0.7l-0.1-0.5c0-0.1-0.1-0.2-0.1-0.2c-1.2-3-8.2-17.8-26.7-17.8
				c-18.5,0-25.1,15.1-26.2,18.1c0,0.1-0.1,0.1-0.1,0.3c-0.1,0.2-0.1,0.3-0.1,0.3s0,0,0,0c0,0.1,0,0.2,0,0.2c0,0,0,0,0,0
				c-0.1,0.2-0.1,0.5-0.1,0.7c0,0.2,0,0.5,0.1,0.7l0.2,0.5c0,0.1,0.1,0.2,0.1,0.2c1.2,3,8.2,17.8,26.7,17.8
				c18.5,0,25.1-15.1,26.2-18.1c0-0.1,0.1-0.2,0.1-0.3l0.1-0.3c0-0.1,0-0.1,0-0.1c0,0,0,0,0,0C76.7,50.3,76.7,50,76.7,49.8z
				 M50.2,63.6c-13.9,0-19.5-10.1-21.1-13.5c1.4-3.5,6.8-13.7,20.6-13.7c13.9,0,19.5,10.1,21.1,13.5C69.4,53.4,64,63.6,50.2,63.6z"
				/>
		</g>
   </svg>
   
   <svg viewBox="0 0 100 100">
	    <g id="17">
			<path class="st47" d="M65.9,41.6h-8.7v-6.4c0-4.3-3.5-7.8-7.9-7.8c-2.7,0-5,1.9-5.4,4.6c-0.7,4.3-2,8.4-3.9,12.3l-0.7,1.5h-6.9
				c-3.3,0-6,2.7-6,6v14.9c0,3.3,2.7,6,6,6l8.7,0c1.5,0,2.8-1.3,2.8-2.8V49.3l1.2-2.5c2.1-4.3,3.6-9,4.4-13.8c1.2,0,2.1,1,2.1,2.2
				v9.2c0,1.5,1.3,2.8,2.8,2.8h11.5c0.6,0,1.2,0.3,1.6,0.7c0.4,0.5,0.6,1.1,0.5,1.7L65.6,65c-0.2,1.1-1.1,1.9-2.2,1.9H47.5
				c-1.5,0-2.8,1.3-2.8,2.8s1.3,2.8,2.8,2.8h15.9c3.9,0,7.2-2.8,7.8-6.7l2.4-15.5c0.3-2.2-0.3-4.5-1.8-6.2
				C70.3,42.5,68.1,41.6,65.9,41.6z M38.2,51.4V67h-5.9c-0.2,0-0.3-0.2-0.3-0.3V51.7c0-0.2,0.2-0.3,0.3-0.3H38.2z"/>
		</g>
   </svg>
   
   <svg viewBox="0 0 100 100">
	    <g id="18">
			<path class="st47" d="M69.3,62.5c1.4,0.2,2.9-0.5,3.7-1.7c0.8-1.2,0.8-2.8,0-4L56.3,29.1c-0.8-1.3-2.2-2-3.6-1.8
				c-1.5,0.1-2.7,1.1-3.2,2.5l-3.7,9.9c-0.5,1.5,0.2,3.1,1.7,3.6c1.5,0.5,3.1-0.2,3.6-1.7l2.4-6.4l12.9,21.3L55,55.2L48.7,45
				c-0.6-0.9-1.6-1.4-2.6-1.3c-0.5,0-0.9,0.2-1.3,0.4l-15.1,9.2c-3.2,2-4.3,6.2-2.3,9.4l2.7,4.5c1,1.6,2.5,2.7,4.2,3.1
				c1.8,0.4,3.6,0.1,5.2-0.8l4.2-2.6c-0.4,0.7-0.4,1.6,0,2.3l0.6,0.9c0.8,1.2,1.9,2.1,3.3,2.5c0.4,0.1,0.9,0.2,1.3,0.2
				c1,0,2-0.3,2.8-0.8c1.2-0.8,2.1-1.9,2.5-3.3c0.3-1.4,0.1-2.9-0.6-4.1L52,61.9l1.9-1.2L69.3,62.5z M49.9,67.5
				c-0.1,0.2-0.2,0.5-0.4,0.6c-0.2,0.1-0.5,0.2-0.7,0.1c-0.2-0.1-0.5-0.2-0.6-0.4l-0.6-0.9c-0.3-0.5-0.8-0.9-1.4-1
				c-0.2,0-0.4-0.1-0.5-0.1c0,0-0.1,0-0.1,0l2.7-1.6l1.6,2.6C49.9,67,49.9,67.3,49.9,67.5z M49.4,56.9l-12.8,7.8
				c-0.3,0.2-0.6,0.2-0.9,0.1c-0.3-0.1-0.6-0.3-0.8-0.6l-2.7-4.5c-0.4-0.6-0.2-1.4,0.4-1.7l12.7-7.7L49.4,56.9z"/>
		</g>
   </svg>
   
   <svg viewBox="0 0 100 100">
	    <g id="19">
			<path class="st47" d="M54.1,41.9l-14.7,0l7.3-7.3c0.5-0.5,0.8-1.2,0.8-2s-0.3-1.5-0.8-2c-1.1-1.1-2.9-1.1-4,0L30.6,42.7
				c-0.1,0.1-0.1,0.2-0.2,0.3c-0.1,0.2-0.3,0.4-0.4,0.7c-0.1,0.3-0.2,0.7-0.2,1.1l0,0.2c0,0.2,0.1,0.5,0.2,0.9
				c0.1,0.4,0.4,0.7,0.6,0.9l12.1,12.1c1.1,1.1,2.9,1.1,4,0c0.5-0.5,0.8-1.2,0.8-2s-0.3-1.5-0.8-2l-7.3-7.3l14.7,0
				c2.8,0,5.4,1.1,7.4,3.1c2,2,3.1,4.6,3.1,7.4v9.4c0,1.6,1.3,2.8,2.8,2.8c1.6,0,2.8-1.3,2.8-2.8v-9.4c0-4.3-1.7-8.3-4.7-11.4
				C62.5,43.6,58.4,41.9,54.1,41.9z"/>
		</g>
   </svg>
   
   <svg viewBox="0 0 100 100">
	    <g id="20">
			<path class="st47" d="M32.6,70.2c1.6,0,2.8-1.3,2.8-2.8v-9.4c0-2.8,1.1-5.4,3.1-7.4c2-2,4.6-3.1,7.4-3.1l14.7,0l-7.3,7.3
				c-0.5,0.5-0.8,1.2-0.8,2s0.3,1.5,0.8,2c1.1,1.1,2.9,1.1,4,0l12.1-12.1c0.3-0.3,0.5-0.6,0.6-0.9c0.1-0.2,0.1-0.4,0.1-0.6l0-0.2
				c0-0.1,0.1-0.2,0.1-0.3c0-0.4-0.1-0.7-0.2-1.1c-0.1-0.1-0.2-0.3-0.2-0.4L69.6,43c-0.1-0.1-0.1-0.2-0.3-0.4L57.3,30.6
				c-1.1-1.1-2.9-1.1-4,0c-0.5,0.5-0.8,1.2-0.8,2s0.3,1.5,0.8,2l7.3,7.3l-14.7,0c-4.3,0-8.3,1.7-11.4,4.7c-3,3-4.7,7.1-4.7,11.4v9.4
				C29.8,68.9,31.1,70.2,32.6,70.2z"/>
		</g>
   </svg>
   
   <svg viewBox="0 0 100 100">
	    <g id="21">
			<path class="st47" d="M70,54.2c-0.1-0.4-0.4-0.7-0.6-0.9L57.3,41.2c-1.1-1.1-2.9-1.1-4,0c-0.5,0.5-0.8,1.2-0.8,2s0.3,1.5,0.8,2
				l7.3,7.3l-14.7,0c-2.8,0-5.4-1.1-7.4-3.1c-2-2-3.1-4.6-3.1-7.4v-9.4c0-1.6-1.3-2.8-2.8-2.8s-2.8,1.3-2.8,2.8v9.4
				c0,4.3,1.7,8.3,4.7,11.4c3,3,7.1,4.7,11.4,4.7l14.7,0l-7.3,7.3c-1.1,1.1-1.1,2.9,0,4c0.5,0.5,1.2,0.8,2,0.8c0.8,0,1.5-0.3,2-0.8
				l12.1-12.1c0.1-0.1,0.1-0.2,0.2-0.2c0.1-0.2,0.3-0.4,0.4-0.7c0.1-0.3,0.2-0.7,0.2-1.1l0-0.2C70.1,54.9,70.1,54.5,70,54.2z"/>
		</g>
   </svg>
   
   <svg viewBox="0 0 100 100">
	    <g id="22">
			<path class="st47" d="M44.7,70.2c0.8,0,1.5-0.3,2-0.8c1.1-1.1,1.1-2.9,0-4l-7.3-7.3l14.7,0c4.3,0,8.3-1.7,11.4-4.7
				c3-3,4.7-7.1,4.7-11.4v-9.4c0-1.6-1.3-2.8-2.8-2.8s-2.8,1.3-2.8,2.8v9.4c0,2.8-1.1,5.4-3.1,7.4c-2,2-4.6,3.1-7.4,3.1l-14.7,0
				l7.3-7.3c0.5-0.5,0.8-1.2,0.8-2s-0.3-1.5-0.8-2c-1.1-1.1-2.9-1.1-4,0l-12,12.1c-0.3,0.3-0.5,0.6-0.6,0.9
				c-0.1,0.3-0.2,0.6-0.2,0.9l0,0.2c0,0.4,0.1,0.7,0.2,1.1c0.1,0.3,0.3,0.5,0.5,0.7c0,0.1,0.1,0.1,0.2,0.2l12.1,12.1
				C43.2,69.9,43.9,70.2,44.7,70.2z"/>
		</g>
   </svg>
   
   <svg viewBox="0 0 100 100">
	    <g id="23">
			<path class="st47" d="M36,47.2l9.7-9.7c0.5-0.5,0.8-1.2,0.8-2s-0.3-1.5-0.8-2c-1.1-1.1-2.9-1.1-4,0L27.2,48
				c-0.1,0.1-0.2,0.3-0.3,0.4l-0.1,0.2c-0.1,0.1-0.1,0.2-0.2,0.3c-0.1,0.3-0.2,0.7-0.2,1.1c0,0.1,0,0.3,0.1,0.4l0,0.1
				c0,0.2,0,0.3,0.1,0.5c0.1,0.3,0.4,0.7,0.6,0.9l14.5,14.5c0.5,0.5,1.2,0.8,2,0.8s1.5-0.3,2-0.8c0.5-0.5,0.8-1.2,0.8-2
				c0-0.8-0.3-1.5-0.8-2L36,52.8l34.9,0c1.6,0,2.8-1.3,2.8-2.8c0-1.5-1.3-2.8-2.8-2.8L36,47.2z M70.8,47.6L70.8,47.6L70.8,47.6
				L70.8,47.6z"/>
		</g>
   </svg>
   
   <svg viewBox="0 0 100 100">
	    <g id="24">
			<path class="st47" d="M54.4,33.5c-0.5,0.5-0.8,1.2-0.8,2s0.3,1.5,0.8,2l9.7,9.7l-34.9,0c-1.5,0-2.8,1.3-2.8,2.8
				c0,0.8,0.3,1.5,0.8,2s1.2,0.8,2,0.8l34.9,0l-9.7,9.7c-0.5,0.5-0.8,1.2-0.8,2s0.3,1.5,0.8,2c0.5,0.5,1.2,0.8,2,0.8s1.5-0.3,2-0.8
				L72.8,52c0.3-0.3,0.5-0.6,0.6-0.9c0.1-0.2,0.1-0.4,0.1-0.5l0-0.2c0-0.1,0.1-0.2,0.1-0.3c0-0.4-0.1-0.7-0.2-1.1
				c-0.1-0.1-0.1-0.2-0.2-0.4l-0.1-0.1c-0.1-0.1-0.2-0.3-0.3-0.4L58.4,33.5C57.3,32.4,55.5,32.4,54.4,33.5z"/>
		</g>
   </svg>
   
   <svg viewBox="0 0 100 100">
	    <g id="25">
			<path class="st47" d="M33.5,54.4c-0.5,0.5-0.8,1.2-0.8,2s0.3,1.5,0.8,2L48,72.8c0.1,0.1,0.2,0.1,0.3,0.2l0.1,0.1
				c0.1,0.1,0.3,0.2,0.5,0.3c0.3,0.1,0.6,0.2,0.9,0.2l0.2,0c0.1,0,0.2,0,0.2,0c0.3,0,0.6-0.1,0.9-0.2c0.4-0.1,0.7-0.4,0.9-0.6
				l14.5-14.5c0.5-0.5,0.8-1.2,0.8-2s-0.3-1.5-0.8-2c-1.1-1.1-2.9-1.1-4,0L52.8,64l0-34.9c0-1.6-1.3-2.8-2.8-2.8
				c-1.6,0-2.8,1.3-2.8,2.8l0,34.9l-9.7-9.7C36.4,53.3,34.6,53.3,33.5,54.4z"/>
		</g>
   </svg>
   
   <svg viewBox="0 0 100 100">
	    <g id="26">
			<path class="st47" d="M48.3,27c-0.1,0-0.2,0.1-0.3,0.2L33.5,41.6c-1.1,1.1-1.1,2.9,0,4s2.9,1.1,4,0l9.7-9.7l0,34.9
				c0,0.8,0.3,1.5,0.8,2s1.2,0.8,2,0.8c1.6,0,2.8-1.3,2.8-2.8l0-34.9l9.7,9.7c1.1,1.1,2.9,1.1,4,0c1.1-1.1,1.1-2.9,0-4L52,27.2
				c-0.3-0.3-0.6-0.5-0.9-0.6c-0.3-0.1-0.7-0.2-0.9-0.2l-0.2,0c-0.4,0-0.7,0.1-1.1,0.2c-0.2,0.1-0.4,0.2-0.5,0.3l0.2,0.4
				c0,0,0,0,0,0L48.3,27z"/>
		</g>
   </svg>
   
   <svg viewBox="0 0 100 100">
	    <g id="27">
			<path class="st47" d="M72.8,47.9l-9.3-9.3c-1.1-1.1-2.9-1.1-4,0c-0.5,0.5-0.8,1.2-0.8,2s0.3,1.5,0.8,2l4.6,4.6l-14.2,0l-13.8,0
				l4.6-4.6c0.5-0.5,0.8-1.2,0.8-2s-0.3-1.5-0.8-2c-1.1-1.1-2.9-1.1-4,0l-9.3,9.3c-0.3,0.3-0.6,0.6-0.7,1c0,0.1-0.1,0.2-0.1,0.3
				c-0.1,0.2-0.1,0.4-0.1,0.7l0,0.1c0,0,0,0,0,0.1l0,0c0,0.1,0,0.2,0,0.2c0,0.2,0.1,0.5,0.2,0.8c0.1,0.4,0.4,0.7,0.6,0.9l9.4,9.4
				c1.1,1.1,2.9,1.1,4,0c0.5-0.5,0.8-1.2,0.8-2c0-0.8-0.3-1.5-0.8-2L36,52.8l13.8,0l14.3,0l-4.6,4.6c-1.1,1.1-1.1,2.9,0,4
				c0.5,0.5,1.2,0.8,2,0.8c0.8,0,1.5-0.3,2-0.8l9.4-9.4c0.3-0.3,0.5-0.6,0.6-0.9c0.1-0.3,0.1-0.5,0.2-0.8c0-0.1,0-0.1,0-0.2v0
				c0,0,0,0,0,0l0-0.1C73.6,49.2,73.3,48.4,72.8,47.9z"/>
		</g>
   </svg>
   
   <svg viewBox="0 0 100 100">
	    <g id="28">
			<path class="st47" d="M57.4,40.5c1.1,1.1,2.9,1.1,4,0c0.5-0.5,0.8-1.2,0.8-2s-0.3-1.5-0.8-2L52,27.2c-0.3-0.3-0.6-0.5-0.9-0.6
				c-0.3-0.1-0.6-0.2-1-0.2l-0.1,0c-0.3,0-0.5,0.1-0.7,0.1l-0.1,0c-0.1,0-0.2,0-0.3,0.1c-0.4,0.2-0.7,0.4-1,0.7l-9.3,9.3
				c-0.5,0.5-0.8,1.2-0.8,2s0.3,1.5,0.8,2c1.1,1.1,2.9,1.1,4,0l4.6-4.6l0,14l0,14l-4.6-4.6c-1.1-1.1-2.9-1.1-4,0
				c-1.1,1.1-1.1,2.9,0,4l9.3,9.3c0.3,0.3,0.6,0.6,1,0.7c0.1,0,0.2,0.1,0.3,0.1c0.2,0.1,0.4,0.1,0.7,0.1l0.1,0l0.1,0
				c0.4,0,0.7-0.1,1-0.2c0.3-0.1,0.7-0.4,0.9-0.6l9.4-9.4c1.1-1.1,1.1-2.9,0-4c-1.1-1.1-2.9-1.1-4,0L52.8,64l0-14l0-14L57.4,40.5z"
				/>
		</g>
   </svg>
   
   <svg viewBox="0 0 100 100">
	    <g id="29">
			<path class="st47" d="M66.9,60.2H39.9l3-3c0.5-0.5,0.8-1.2,0.8-2s-0.3-1.5-0.8-2c-1.1-1.1-2.9-1.1-4,0L31.1,61
					c-0.3,0.3-0.5,0.6-0.6,0.9c-0.1,0.3-0.2,0.7-0.2,1.1s0.1,0.7,0.2,1.1c0.1,0.3,0.3,0.6,0.6,0.9l7.8,7.8c0.5,0.5,1.2,0.8,2,0.8
					s1.5-0.3,2-0.8c1.1-1.1,1.1-2.9,0-4l-3-3h27.1c1.6,0,2.8-1.3,2.8-2.8S68.5,60.2,66.9,60.2z"/>
			<path class="st47" d="M33.1,39.8h27.1l-3,3c-1.1,1.1-1.1,2.9,0,4c0.5,0.5,1.2,0.8,2,0.8c0.8,0,1.5-0.3,2-0.8l7.8-7.8
				c0.3-0.3,0.5-0.6,0.6-0.9c0.1-0.3,0.2-0.7,0.2-1.1l0-0.1c0-0.3-0.1-0.7-0.2-1c-0.1-0.3-0.4-0.7-0.6-0.9l-7.8-7.8
				c-1.1-1.1-2.9-1.1-4,0c-0.5,0.5-0.8,1.2-0.8,2s0.3,1.5,0.8,2l3,3H33.1c-1.6,0-2.8,1.3-2.8,2.8S31.5,39.8,33.1,39.8z"/>
		</g>
   </svg>
   
   <svg viewBox="0 0 100 100">
	    <g id="30">
			<path class="st47" d="M39,31.1c-0.3-0.3-0.6-0.5-0.9-0.6c-0.3-0.1-0.6-0.2-1-0.2l0,0l-0.2,0c-0.3,0-0.7,0.1-1,0.2
					c-0.3,0.1-0.7,0.4-0.9,0.6l-7.8,7.8c-0.5,0.5-0.8,1.2-0.8,2c0,0.8,0.3,1.5,0.8,2c1.1,1.1,2.9,1.1,4,0l3-3v27.1
					c0,1.6,1.3,2.8,2.8,2.8s2.8-1.3,2.8-2.8V39.9l3,3c1.1,1.1,2.9,1.1,4,0c0.5-0.5,0.8-1.2,0.8-2c0-0.8-0.3-1.5-0.8-2L39,31.1z"/>
			<path class="st47" d="M72.8,57.1c-1.1-1.1-2.9-1.1-4,0l-3,3V33.1c0-1.6-1.3-2.8-2.8-2.8s-2.8,1.3-2.8,2.8v27.1l-3-3
				c-1.1-1.1-2.9-1.1-4,0c-0.5,0.5-0.8,1.2-0.8,2s0.3,1.5,0.8,2l7.9,7.9c0.3,0.2,0.5,0.4,0.8,0.6c0.3,0.1,0.7,0.2,1.1,0.2l0.1,0
				c0.3,0,0.7-0.1,1-0.2c0.3-0.1,0.7-0.4,0.9-0.6l7.8-7.8c0.5-0.5,0.8-1.2,0.8-2C73.7,58.4,73.4,57.7,72.8,57.1z"/>
		</g>
   </svg>
   
   <svg viewBox="0 0 100 100">
	    <g id="31">
			<path class="st47" d="M37.5,72c0.6,0.6,1.4,1,2.3,1c0.9,0,1.7-0.3,2.3-0.9l20.3-19.7c0.6-0.6,1-1.5,1-2.3c0-0.9-0.4-1.7-1-2.3
				L42.1,28c-0.6-0.6-1.5-0.9-2.3-0.9c-0.9,0-1.7,0.4-2.3,1c-0.6,0.6-0.9,1.4-0.9,2.3c0,0.9,0.4,1.7,1,2.3L55.5,50L37.6,67.4
				C36.3,68.6,36.3,70.7,37.5,72z"/>
		</g>
   </svg>
   
   <svg viewBox="0 0 100 100">
	    <g id="32">
			<path class="st47" d="M63.1,30.3c0-0.9-0.3-1.7-0.9-2.3h0c-0.6-0.6-1.4-1-2.3-1c0,0,0,0,0,0c-0.9,0-1.7,0.3-2.3,1L37.8,47.7
				c-0.6,0.6-1,1.4-1,2.3c0,0.9,0.3,1.7,1,2.3L57.6,72c0.6,0.6,1.4,1,2.3,1c0.9,0,1.7-0.3,2.3-1c1.3-1.3,1.3-3.3,0-4.6L44.7,50
				l17.4-17.4C62.8,32,63.1,31.2,63.1,30.3z"/>
		</g>
   </svg>
   
   <svg viewBox="0 0 100 100">
	    <g id="33">
			<path class="st47" d="M32.6,62.1L50,44.7l17.4,17.4c0.6,0.6,1.4,1,2.3,1c0.9,0,1.7-0.3,2.3-1c1.3-1.3,1.3-3.3,0-4.6L52.3,37.8
				c-0.6-0.6-1.4-0.9-2.3-0.9s-1.7,0.3-2.3,0.9L28,57.5c-0.6,0.6-1,1.4-1,2.3c0,0.9,0.3,1.7,1,2.3C29.2,63.4,31.4,63.4,32.6,62.1z"
				/>
		</g>
   </svg>
   
   <svg viewBox="0 0 100 100">
	    <g id="34">
			<path class="st47" d="M73,40.1c0-0.9-0.3-1.7-1-2.3c-1.3-1.3-3.3-1.3-4.6,0L50,55.3L32.6,37.8c-0.6-0.6-1.4-1-2.3-1c0,0,0,0,0,0
				c-0.9,0-1.7,0.3-2.3,1c-0.6,0.6-1,1.4-1,2.3c0,0.9,0.3,1.7,1,2.3l19.7,19.7c0.6,0.6,1.4,1,2.3,1c0.9,0,1.7-0.3,2.3-1L72,42.4
				C72.6,41.8,73,41,73,40.1z"/>
		</g>
   </svg>
   
   <svg viewBox="0 0 100 100">
	    <g id="35">
			<path class="st47" d="M47.7,72c0.3,0.3,0.7,0.6,1.1,0.7c0.4,0.2,0.8,0.2,0.9,0.2l0.3,0c0.4,0,0.8-0.1,1.2-0.3
				c0.4-0.1,0.6-0.4,0.7-0.5c0.1,0,0.2-0.1,0.3-0.2L72,52.3c0.6-0.6,1-1.4,1-2.3c0-0.9-0.3-1.7-1-2.3c-1.3-1.3-3.3-1.3-4.6,0
				L53.3,61.8l0-31.5c0-0.9-0.3-1.7-1-2.3c-0.6-0.6-1.4-1-2.3-1c-1.8,0-3.3,1.5-3.3,3.2l0,31.6L32.6,47.7c-1.3-1.3-3.3-1.3-4.6,0
				c-0.6,0.6-1,1.4-1,2.3c0,0.9,0.3,1.7,1,2.3L47.7,72z"/>
		</g>
   </svg>
   
   <svg viewBox="0 0 100 100">
	    <g id="36">
			<path class="st47" d="M46.7,38.2l0,31.5c0,0.9,0.3,1.7,1,2.3c0.6,0.6,1.4,1,2.3,1c1.8,0,3.2-1.5,3.3-3.2l0-31.6l14.2,14.2
				c1.2,1.2,3.4,1.2,4.6,0c0.6-0.6,1-1.4,1-2.3s-0.3-1.7-1-2.3L52.3,28c-0.3-0.3-0.7-0.6-1.1-0.7c-0.4-0.1-0.7-0.2-0.9-0.2L50,27
				c-0.4,0-0.8,0.1-1.2,0.3c-0.3,0.1-0.5,0.3-0.6,0.4l0,0c-0.1,0-0.2,0.1-0.4,0.3L28,47.7c-1.3,1.3-1.3,3.3,0,4.6
				c0.6,0.6,1.4,1,2.3,1c0,0,0,0,0,0c0.9,0,1.7-0.3,2.3-1L46.7,38.2z"/>
		</g>
   </svg>
   
   <svg viewBox="0 0 100 100">
	    <g id="37">
			<path class="st47" d="M30.3,53.2l31.6,0L47.7,67.4c-0.6,0.6-1,1.4-1,2.3s0.3,1.7,1,2.3s1.4,1,2.3,1s1.7-0.3,2.3-1L72,52.3
				c0.3-0.3,0.5-0.7,0.7-1.1c0.2-0.4,0.2-0.7,0.2-1.1l0-0.1c0-0.4-0.1-0.9-0.3-1.2c0,0-0.1-0.2-0.2-0.3c-0.1-0.3-0.3-0.5-0.5-0.8
				L52.3,28c-1.3-1.3-3.3-1.3-4.6,0c-0.6,0.6-1,1.4-1,2.3s0.3,1.7,1,2.3l14.1,14.2l-31.6,0c-1.8,0-3.3,1.5-3.3,3.2
				c0,0.9,0.3,1.7,1,2.3C28.6,52.9,29.4,53.2,30.3,53.2z"/>
		</g>
   </svg>
   
   <svg viewBox="0 0 100 100">
	    <g id="38">
			<path class="st47" d="M69.7,46.7l-31.6,0l14.1-14.1c0.6-0.6,1-1.4,1-2.3c0-0.9-0.3-1.7-1-2.3c-0.6-0.6-1.4-0.9-2.3-0.9
				c0,0,0,0,0,0c-0.9,0-1.7,0.3-2.3,0.9L28,47.7c-0.1,0.1-0.2,0.2-0.2,0.3c-0.1,0.2-0.3,0.4-0.5,0.7c-0.2,0.4-0.2,0.7-0.2,1.1l0,0.1
				c0,0,0,0.2,0,0.3c0,0.3,0.1,0.6,0.2,0.9c0.2,0.4,0.4,0.8,0.7,1.1L47.7,72c0.6,0.6,1.4,1,2.3,1c0.9,0,1.7-0.3,2.3-1
				c0.6-0.6,1-1.4,1-2.3c0-0.9-0.3-1.7-1-2.3L38.1,53.2l31.6,0c0.9,0,1.7-0.3,2.3-1s1-1.4,1-2.3C73,48.2,71.5,46.7,69.7,46.7z"/>
		</g>
   </svg>
   
   <svg viewBox="0 0 100 100">
	    <g id="39">
			<path class="st47" d="M61.4,58.5L50.1,69.6L38.8,58.5c-0.6-0.6-1.4-0.9-2.2-0.9c-0.8,0-1.6,0.3-2.2,0.9
					c-0.6,0.6-0.9,1.4-0.9,2.2c0,0.8,0.3,1.6,0.9,2.2l13.5,13.3c0.6,0.6,1.4,0.9,2.2,0.9c0.8,0,1.6-0.3,2.2-0.9l13.5-13.3
					c0.6-0.6,0.9-1.4,0.9-2.2c0-0.8-0.3-1.6-0.9-2.2C64.7,57.3,62.7,57.3,61.4,58.5z"/>
			<path class="st47" d="M38.8,52.1L50.1,41l11.3,11.1c0.6,0.6,1.4,0.9,2.2,0.9c0.8,0,1.6-0.3,2.2-0.9c0.6-0.6,0.9-1.4,0.9-2.2
				c0-0.8-0.3-1.6-0.9-2.2L52.3,34.3c-1.2-1.2-3.2-1.2-4.4,0L34.4,47.6c-0.6,0.6-0.9,1.4-0.9,2.2c0,0.8,0.3,1.6,0.9,2.2
				C35.6,53.2,37.6,53.3,38.8,52.1z"/>
		</g>
   </svg>
   
   <svg viewBox="0 0 100 100">
	    <g id="40">
			<path class="st47" d="M65.7,66.5L52.2,53.2C51,52,49,52,47.8,53.2L34.3,66.5c-0.6,0.6-0.9,1.4-0.9,2.2c0,0.8,0.3,1.6,0.9,2.2
					c1.2,1.2,3.2,1.2,4.4,0L50,59.8l11.3,11.1c0.6,0.6,1.4,0.9,2.1,0.9c0,0,0.1,0,0.1,0c0.8,0,1.6-0.3,2.2-0.9
					c0.6-0.6,0.9-1.4,0.9-2.2C66.6,67.8,66.3,67,65.7,66.5z"/>
			<path class="st47" d="M47.8,46.8L47.8,46.8c0.6,0.6,1.4,0.9,2.2,0.9c0.8,0,1.6-0.3,2.2-0.9l13.5-13.3c1.2-1.2,1.3-3.2,0-4.4
				c-0.6-0.6-1.4-0.9-2.2-0.9c-0.8,0-1.6,0.3-2.2,0.9L50,40.2L38.7,29.1c-1.2-1.2-3.2-1.2-4.4,0c-0.6,0.6-0.9,1.4-0.9,2.2
				c0,0.8,0.3,1.6,0.9,2.2L47.8,46.8z"/>
		</g>
   </svg>
   
   <svg viewBox="0 0 100 100">
	    <g id="41">
			<path class="st47" d="M71.3,55.8l-2.8-3.3c-0.5-0.6-1.2-0.9-1.9-1c-0.7-0.1-1.5,0.2-2,0.7c-0.6,0.5-0.9,1.2-1,1.9
					c-0.1,0.7,0.2,1.5,0.7,2l2.8,3.3c0.3,0.3,0.4,0.7,0.4,1.1v6.5c0,0.5-0.4,0.9-0.9,0.9H33.4c-0.5,0-0.9-0.4-0.9-0.9v-6.5
					c0-0.4,0.1-0.8,0.4-1.1l2.8-3.3c0.5-0.6,0.7-1.3,0.7-2c-0.1-0.7-0.4-1.4-1-1.9s-1.3-0.7-2-0.7c-0.7,0.1-1.4,0.4-1.9,1l-2.8,3.3
					c-1.2,1.3-1.8,3-1.8,4.8v6.5c0,3.6,2.9,6.5,6.5,6.5h33.2c3.6,0,6.5-2.9,6.5-6.5v-6.5C73.1,58.9,72.4,57.2,71.3,55.8z"/>
			<path class="st47" d="M48,57.4c0.5,0.5,1.2,0.8,2,0.8c0.8,0,1.5-0.3,2-0.8l10.8-10.8c0.5-0.5,0.8-1.2,0.8-2c0-0.8-0.3-1.5-0.8-2
				c-1.1-1.1-2.9-1.1-4,0l-6,6V29.2c0-1.5-1.3-2.8-2.8-2.8s-2.8,1.3-2.8,2.8v19.5l-6-6c-1.1-1.1-2.9-1.1-4,0
				c-0.5,0.5-0.8,1.2-0.8,2c0,0.8,0.3,1.5,0.8,2L48,57.4z"/>
		</g>
   </svg>
   
   <svg viewBox="0 0 100 100">
	    <g id="42">
			<path class="st47" d="M66.6,26.4H33.4c-3.6,0-6.5,2.9-6.5,6.5v6.5c0,1.8,0.6,3.5,1.8,4.8l2.8,3.3c0.5,0.6,1.2,0.9,1.9,1
					c0.7,0,1.5-0.2,2-0.7c1.2-1,1.3-2.8,0.3-4L33,40.5c-0.3-0.3-0.4-0.7-0.4-1.1v-6.5c0-0.5,0.4-0.9,0.9-0.9h33.2
					c0.5,0,0.9,0.4,0.9,0.9v6.5c0,0.4-0.1,0.8-0.4,1.1l-2.8,3.3c-1,1.2-0.9,2.9,0.3,4c0.5,0.4,1.2,0.7,1.8,0.7c0.8,0,1.6-0.4,2.1-1
					l2.8-3.3c1.2-1.3,1.8-3,1.8-4.8v-6.5C73.1,29.3,70.2,26.4,66.6,26.4z"/>
			<path class="st47" d="M52,42.6c-1.1-1.1-2.9-1.1-4,0L37.2,53.3c-0.5,0.5-0.8,1.2-0.8,2s0.3,1.5,0.8,2c1.1,1.1,2.9,1.1,4,0l6-6
				v19.5c0,1.5,1.3,2.8,2.8,2.8c1.5,0,2.8-1.3,2.8-2.8V51.3l6,6c1.1,1.1,2.9,1.1,4,0c0.5-0.5,0.8-1.2,0.8-2s-0.3-1.5-0.8-2L52,42.6
				z"/>
		</g>
   </svg>
   
   <svg viewBox="0 0 100 100">
	    <g id="43">
			<path class="st47" d="M70.8,54.2c-1.6,0-2.8,1.3-2.8,2.8v10.3c0,0.4-0.3,0.7-0.7,0.7H32.6c-0.4,0-0.7-0.3-0.7-0.7V32.6
					c0-0.4,0.3-0.7,0.7-0.7h12.6c1.6,0,2.8-1.3,2.8-2.8s-1.3-2.8-2.8-2.8H32.6c-3.5,0-6.3,2.8-6.3,6.3v34.7c0,3.5,2.8,6.3,6.3,6.3
					h34.7c3.5,0,6.3-2.8,6.3-6.3V57C73.7,55.5,72.4,54.2,70.8,54.2z"/>
			<path class="st47" d="M73.4,28.1L73.4,28.1c-0.3-0.7-0.8-1.2-1.5-1.5c-0.3-0.1-0.7-0.2-1.1-0.2H55.6c-1.6,0-2.8,1.3-2.8,2.8
				s1.3,2.8,2.8,2.8H64L48,48c-0.5,0.5-0.8,1.2-0.8,2s0.3,1.5,0.8,2c0.5,0.5,1.2,0.8,2,0.8s1.5-0.3,2-0.8l16-16v9.9
				c0,1.6,1.3,2.8,2.8,2.8s2.8-1.3,2.8-2.8V29.2C73.7,28.8,73.6,28.4,73.4,28.1z"/>
		</g>
   </svg>
   
   <svg viewBox="0 0 100 100">
	    <g id="44">
			<path class="st47" d="M50,42.8c-4,0-7.2,3.2-7.2,7.2s3.2,7.2,7.2,7.2s7.2-3.2,7.2-7.2S54,42.8,50,42.8z M50,51.6
					c-0.9,0-1.6-0.7-1.6-1.6s0.7-1.6,1.6-1.6s1.6,0.7,1.6,1.6S50.9,51.6,50,51.6z"/>
			<path class="st47" d="M70.8,47.2h-3.6c-0.4-2.7-1.5-5.2-3-7.4l2.5-2.5c1.1-1.1,1.1-2.9,0-4c-1.1-1.1-2.9-1.1-4,0l-2.5,2.5
				c-2.2-1.6-4.7-2.6-7.4-3v-3.6c0-1.5-1.3-2.8-2.8-2.8s-2.8,1.3-2.8,2.8v3.6c-2.7,0.4-5.2,1.5-7.4,3l-2.5-2.5
				c-1.1-1.1-2.9-1.1-4,0c-0.5,0.5-0.8,1.2-0.8,2c0,0.8,0.3,1.5,0.8,2l2.5,2.5c-1.6,2.2-2.6,4.7-3,7.4h-3.6c-1.5,0-2.8,1.3-2.8,2.8
				s1.3,2.8,2.8,2.8h3.6c0.4,2.7,1.5,5.2,3,7.4l-2.5,2.5c-0.5,0.5-0.8,1.2-0.8,2c0,0.8,0.3,1.5,0.8,2c1.1,1.1,2.9,1.1,4,0l2.5-2.5
				c2.2,1.6,4.7,2.6,7.4,3v3.6c0,1.5,1.3,2.8,2.8,2.8s2.8-1.3,2.8-2.8v-3.6c2.7-0.4,5.2-1.5,7.4-3l2.5,2.5c1.1,1.1,2.9,1.1,4,0
				c1.1-1.1,1.1-2.9,0-4l-2.5-2.5c1.6-2.2,2.6-4.7,3-7.4h3.6c1.5,0,2.8-1.3,2.8-2.8S72.3,47.2,70.8,47.2z M50,61.9
				c-6.6,0-11.9-5.3-11.9-11.9S43.4,38.1,50,38.1S61.9,43.4,61.9,50S56.6,61.9,50,61.9z"/>
		</g>
   </svg>
   
   <svg viewBox="0 0 100 100">
	    <g id="45">
			<path class="st47" d="M33.1,55.8c1.6,0,2.8-1.3,2.8-2.8v-9.4c0-2.1,1.7-3.8,3.8-3.8h20.5l-3,3c-0.5,0.5-0.8,1.2-0.8,2
					s0.3,1.5,0.8,2c1.1,1.1,2.9,1.1,4,0l7.8-7.8c0.3-0.3,0.5-0.6,0.6-0.9c0.1-0.3,0.2-0.7,0.2-1.1l0-0.1c0-0.3-0.1-0.7-0.2-1
					c-0.1-0.3-0.3-0.7-0.6-0.9l-7.8-7.8c-1.1-1.1-2.9-1.1-4,0c-0.5,0.5-0.8,1.2-0.8,2c0,0.8,0.3,1.5,0.8,2l3,3H39.7
					c-5.2,0-9.4,4.2-9.4,9.4v9.4C30.3,54.5,31.5,55.8,33.1,55.8z"/>
			<path class="st47" d="M66.9,44.2c-1.6,0-2.8,1.3-2.8,2.8v9.4c0,2.1-1.7,3.8-3.8,3.8H39.9l3-3c0.5-0.5,0.8-1.2,0.8-2
				c0-0.8-0.3-1.5-0.8-2c-1.1-1.1-2.9-1.1-4,0L31.1,61c-0.3,0.3-0.5,0.6-0.6,0.9c-0.3,0.7-0.3,1.5,0,2.2c0.1,0.3,0.3,0.7,0.6,0.9
				l7.8,7.8c0.5,0.5,1.2,0.8,2,0.8c0.8,0,1.5-0.3,2-0.8c1.1-1.1,1.1-2.9,0-4l-3-3h20.5c5.2,0,9.4-4.2,9.4-9.4V47
				C69.7,45.5,68.5,44.2,66.9,44.2z"/>
		</g>
   </svg>
   
   <svg viewBox="0 0 100 100">
	    <g id="46">
			<path class="st47" d="M50,70.2c9.3,0,17.4-7,18.6-16.3c0.4-2.7,0.2-5.4-0.6-8c-0.5-1.5-2-2.3-3.5-1.9c-0.7,0.2-1.3,0.7-1.7,1.4
				c-0.4,0.7-0.4,1.4-0.2,2.1c0.6,1.8,0.7,3.7,0.4,5.6c-1,7.2-7.6,12.3-14.8,11.3c-3.5-0.5-6.6-2.3-8.7-5.1c-2.1-2.8-3-6.3-2.6-9.8
				c0.5-3.5,2.3-6.6,5.1-8.7c2.8-2.1,6.3-3,9.8-2.6c1,0.1,1.9,0.4,2.9,0.7l-1.1,0.1c-1.5,0.2-2.7,1.6-2.5,3.1
				c0.2,1.4,1.4,2.5,2.8,2.5c0.1,0,0.2,0,0.3,0l8.4-0.9c1.5-0.2,2.7-1.6,2.5-3.1l-0.9-8.4c-0.1-0.8-0.5-1.4-1-1.9
				c-0.6-0.5-1.3-0.7-2.1-0.6c-0.7,0.1-1.4,0.4-1.9,1c-0.5,0.6-0.7,1.3-0.6,2.1l0.2,1.9c-2-1.1-4.1-1.8-6.2-2.1
				c-5-0.7-9.9,0.6-13.9,3.7c-4,3-6.6,7.5-7.3,12.4c-0.7,5,0.6,9.9,3.7,13.9c3,4,7.5,6.6,12.4,7.3C48.3,70.1,49.2,70.2,50,70.2z"/>
		</g>
   </svg>
   
   <svg viewBox="0 0 100 100">
	    <g id="47">
			<path class="st47" d="M42.5,53.3c0.4-1.5-0.6-3-2.1-3.4c-1.5-0.4-3,0.6-3.4,2.1l-0.4,1.5c-0.3-1.1-0.5-2.3-0.5-3.4
					c0-7.6,6.2-13.7,13.7-13.7c2.1,0,4.2,0.5,6.1,1.4c1.4,0.7,3.1,0.1,3.8-1.3c0.3-0.7,0.4-1.4,0.1-2.1c-0.2-0.7-0.7-1.3-1.4-1.6
					c-2.7-1.3-5.6-2-8.6-2c-10.7,0-19.4,8.7-19.4,19.4c0,2.3,0.4,4.6,1.3,6.8l-2.1-0.5c-1.5-0.4-3,0.6-3.4,2.1
					c-0.4,1.5,0.6,3,2.1,3.4l8.5,2.1c0.2,0.1,0.4,0.1,0.7,0.1c0.5,0,1-0.1,1.5-0.4c0.6-0.4,1.1-1,1.3-1.7L42.5,53.3z"/>
			<path class="st47" d="M71.5,38.2L63,36.1c-1.5-0.4-3,0.6-3.4,2.1l-2.1,8.5c-0.4,1.5,0.6,3,2.1,3.4c0.2,0.1,0.4,0.1,0.7,0.1
				c1.3,0,2.4-0.9,2.7-2.1l0.3-1.4c0.3,1.1,0.4,2.2,0.4,3.4c0,7.6-6.2,13.7-13.7,13.7c-2,0-3.9-0.4-5.7-1.3c-1.4-0.6-3.1,0-3.7,1.4
				c-0.3,0.7-0.3,1.4-0.1,2.2c0.3,0.7,0.8,1.3,1.5,1.6c2.5,1.2,5.3,1.8,8.1,1.8c10.7,0,19.4-8.7,19.4-19.4c0-2.3-0.4-4.6-1.3-6.8
				l2.1,0.5c1.5,0.4,3-0.6,3.4-2.1C73.9,40.1,73,38.6,71.5,38.2z"/>
		</g>
   </svg>
   
   <svg viewBox="0 0 100 100">
	    <g id="48">
			<path class="st47" d="M70.8,46.7H53.3V29.2c0-1.8-1.5-3.3-3.3-3.3c-1.8,0-3.3,1.5-3.3,3.3v17.5H29.2c-1.8,0-3.3,1.5-3.3,3.3
				c0,1.8,1.5,3.3,3.3,3.3h17.5v17.5c0,1.8,1.5,3.3,3.3,3.3c1.8,0,3.3-1.5,3.3-3.3V53.3h17.5c1.8,0,3.3-1.5,3.3-3.3
				C74.2,48.2,72.7,46.7,70.8,46.7z"/>
		</g>
   </svg>
   
   <svg viewBox="0 0 100 100">
	    <g id="49">
			<path class="st47" d="M54.7,50l17.9-17.9c0.6-0.6,1-1.5,1-2.3c0-0.9-0.3-1.7-1-2.3c-1.3-1.3-3.4-1.3-4.7,0L50,45.3L32.1,27.4
				c-1.3-1.3-3.4-1.3-4.7,0c-0.6,0.6-1,1.5-1,2.3c0,0.9,0.3,1.7,1,2.3L45.3,50L27.4,67.9c-1.3,1.3-1.3,3.4,0,4.7
				c0.6,0.6,1.5,1,2.3,1s1.7-0.3,2.3-1L50,54.7l17.9,17.9c1.3,1.3,3.4,1.3,4.7,0c0.6-0.6,1-1.5,1-2.3c0-0.9-0.3-1.7-1-2.3L54.7,50z"
				/>
		</g>
   </svg>
   
   <svg viewBox="0 0 100 100">
	    <g id="50">
			<path class="st47" d="M71.4,40.7L51.6,26.9c-1-0.7-2.3-0.7-3.2,0L28.6,40.7c-1.4,1-2.2,2.5-2.2,4.2v21.3c0,4.1,3.3,7.4,7.4,7.4
				h32.3c2,0,3.9-0.8,5.4-2.3l0.1-0.2c1.2-1.4,1.9-3.1,1.9-4.9V44.9C73.6,43.2,72.8,41.6,71.4,40.7z M50,54.7l-16-11l16-11.1
				l16,11.1L50,54.7z M56.8,61c-0.9,1.3-0.5,3,0.7,3.9l4.5,3.1H38l4.2-2.9c0.6-0.4,1-1.1,1.2-1.8c0.1-0.7,0-1.5-0.4-2.1
				c-0.4-0.6-1.1-1-1.8-1.2c-0.7-0.1-1.5,0-2.1,0.4l-7,4.8v-16l16.4,11.2c0.9,0.6,2.2,0.6,3.2,0L68,49.2v16l-7.2-4.9
				C59.5,59.4,57.7,59.7,56.8,61z"/>
		</g>
   </svg>
   
   <svg viewBox="0 0 100 100">
	    <g id="51">
			<path class="st47" d="M70.8,41.6c-1.5,0-2.8,1.3-2.8,2.8v17.1c0,1-0.8,1.8-1.8,1.8H33.8c-1,0-1.8-0.8-1.8-1.8V40l16.2,13.2
				c1,0.8,2.5,0.8,3.5,0l19.3-15.7c0.1-0.1,0.2-0.2,0.3-0.3l1.3-1.3c0.8-0.8,1.1-2,0.6-3.1S71.9,31,70.8,31H32.7
				c-3.5,0-6.3,2.8-6.3,6.3v24.2c0,4.1,3.3,7.4,7.4,7.4h32.3c4.1,0,7.4-3.3,7.4-7.4V44.4C73.6,42.9,72.3,41.6,70.8,41.6z M63.3,36.7
				L50,47.4L36.8,36.7H63.3z"/>
		</g>
   </svg>
   
   <svg viewBox="0 0 100 100">
	    <g id="52">
			<path class="st47" d="M74,48.1l0-0.4h-0.2l-6.7-16.8c-0.4-1.1-1.5-1.8-2.6-1.8H35.4c-1.2,0-2.2,0.7-2.6,1.8l-6.7,16.8l-0.2,0v0.4
				c0,0.1,0,0.2,0,0.1c-0.1,0.3-0.2,0.6-0.2,0.9c0,0.1,0,0.2,0,0.2c0,0.1,0,0.2,0.1,0.4c0.1,0.3,0.2,0.6,0.3,0.7l0.1,0.2l0,0.1
				c0.1,0.1,0.1,0.2,0.2,0.2c0.2,0.2,0.4,0.4,0.7,0.6c0.1,0.1,0.2,0.1,0.2,0.2c0.4,0.2,0.8,0.3,1.2,0.3h11c1.8,4.1,5.9,6.7,10.3,6.7
				s8.5-2.6,10.3-6.7h8.2v11.6c0,1-0.8,1.8-1.8,1.8H33.3c-1,0-1.8-0.8-1.8-1.8v-7.2c0-1.5-1.3-2.8-2.8-2.8s-2.8,1.3-2.8,2.8v7.2
				c0,4.1,3.3,7.4,7.4,7.4h33.5c4.1,0,7.4-3.3,7.4-7.4V49.1c0-0.3-0.1-0.6-0.2-0.8C74,48.2,74,48.2,74,48.1z M58.3,46.3
				c-1.3,0-2.4,0.9-2.7,2.2c-0.6,2.6-2.9,4.5-5.6,4.5c-2.7,0-5-1.8-5.6-4.5c-0.3-1.3-1.4-2.2-2.7-2.2h-8.9l4.6-11.5h25.3l4.6,11.5
				H58.3z"/>
		</g>
   </svg>
   
   <svg viewBox="0 0 100 100">
	    <g id="53">
			<path class="st47" d="M50.5,26.4c-7.1-0.1-13.8,2.9-18.4,8.3c-1,1.2-0.9,3,0.3,4c0.6,0.5,1.3,0.7,2,0.7c0.7-0.1,1.4-0.4,1.9-1
				c3.5-4.1,8.6-6.4,14-6.3c4.8,0.1,9.3,2.1,12.6,5.5c3.3,3.5,5.1,8,5,12.8c-0.1,3.4-1.1,6.7-3,9.6c-0.5,0.7-0.6,1.6-0.3,2.4l1,3.3
				c-4.3-1.4-4.7-1.3-5.7-0.6c-3.1,2-6.6,3.1-10.3,3c-4.8-0.1-9.3-2.1-12.6-5.5c-3.3-3.5-5.1-8-5-12.8c0-2.4,0.6-4.7,1.5-6.9
				c0.3-0.7,0.3-1.5,0-2.2c-0.3-0.7-0.8-1.3-1.5-1.6c-0.7-0.3-1.5-0.3-2.1,0c-0.7,0.3-1.3,0.8-1.6,1.5c-1.3,2.9-1.9,5.9-2,9
				c-0.1,6.3,2.2,12.3,6.6,16.8c4.4,4.5,10.2,7.1,16.5,7.2l0.5,0c4.2,0,8.3-1.1,11.9-3.3c1.6,0.5,4.7,1.5,7.1,2.3
				c0.3,0.1,0.6,0.1,0.9,0.1c0.1,0,0.1,0,0.1,0c0.1,0,0.2,0,0.2,0l0-0.5l0.2,0.5c0.1,0,0.2,0,0.3-0.1c0.1,0,0.2-0.1,0.2-0.1
				c0.2-0.1,0.3-0.2,0.5-0.3c0.1-0.1,0.3-0.2,0.4-0.3c0.1-0.1,0.2-0.3,0.3-0.4c0.1-0.1,0.2-0.3,0.3-0.5c0,0,0.1-0.1,0.1-0.2
				c0-0.1,0-0.2,0-0.3c0-0.2,0.1-0.4,0.1-0.6c0-0.2,0-0.4-0.1-0.6c0-0.1,0-0.2,0-0.3l-2.2-7.2c2-3.5,3.1-7.4,3.2-11.4
				C73.8,37.5,63.5,26.7,50.5,26.4z"/>
		</g>
   </svg>
   
   <svg viewBox="0 0 100 100">
	    <g id="54">
			<path class="st47" d="M59.9,51.2c2.6-2.6,4-6.1,4-9.7c0-7.7-6.3-14-14-14s-14,6.3-14,14c0,3.6,1.5,7.1,4,9.7
				c-7.5,3-12.5,10.3-12.5,18.4c0,1.5,1.3,2.8,2.8,2.8s2.8-1.3,2.8-2.8c0-7.8,6.4-14.2,14.2-14.2h5.3c7.8,0,14.2,6.4,14.2,14.2
				c0,1.5,1.3,2.8,2.8,2.8s2.8-1.3,2.8-2.8C72.4,61.5,67.4,54.2,59.9,51.2z M50,49.8c-4.6,0-8.3-3.7-8.3-8.3c0-4.6,3.7-8.3,8.3-8.3
				c4.6,0,8.3,3.7,8.3,8.3C58.3,46.1,54.6,49.8,50,49.8z"/>
		</g>
   </svg>
   
   <svg viewBox="0 0 100 100">
	    <g id="55">
			<path class="st47" d="M68.6,32.7H31.4c-1.7,0-3.1,1.4-3.1,3.1s1.4,3.1,3.1,3.1h37.3c1.7,0,3.1-1.4,3.1-3.1S70.4,32.7,68.6,32.7z
					"/>
			<path class="st47" d="M43.8,61H31.4c-1.7,0-3.1,1.4-3.1,3.1s1.4,3.1,3.1,3.1h12.4c1.7,0,3.1-1.4,3.1-3.1S45.5,61,43.8,61z"/>
			<path class="st47" d="M56.2,46.9H31.4c-1.7,0-3.1,1.4-3.1,3.1s1.4,3.1,3.1,3.1h24.8c1.7,0,3.1-1.4,3.1-3.1S57.9,46.9,56.2,46.9z
				"/>
		</g>
   </svg>
   
   <svg viewBox="0 0 100 100">
	    <g id="56">
			<path class="st47" d="M66.4,28.4c-1.7,0-3.1,1.4-3.1,3.1v37c0,1.7,1.4,3.1,3.1,3.1s3.1-1.4,3.1-3.1v-37
					C69.5,29.8,68.1,28.4,66.4,28.4z"/>
			<path class="st47" d="M55.5,37.1c-1.7,0-3.1,1.4-3.1,3.1v28.3c0,1.7,1.4,3.1,3.1,3.1s3.1-1.4,3.1-3.1V40.2
				C58.6,38.5,57.2,37.1,55.5,37.1z"/>
			<path class="st47" d="M44.5,49.2c-1.7,0-3.1,1.4-3.1,3.1v16.2c0,1.7,1.4,3.1,3.1,3.1s3.1-1.4,3.1-3.1V52.3
				C47.7,50.6,46.3,49.2,44.5,49.2z"/>
			<path class="st47" d="M33.6,58.5c-1.7,0-3.1,1.4-3.1,3.1v6.9c0,1.7,1.4,3.1,3.1,3.1s3.1-1.4,3.1-3.1v-6.9
				C36.8,59.9,35.4,58.5,33.6,58.5z"/>
		</g>
   </svg>
   
   <svg viewBox="0 0 36 36" id="retractarrow">
		<defs>
			<linearGradient id="dashboardlg1" y1="17.97" x2="35.94" y2="17.97" gradientUnits="userSpaceOnUse">
				<stop offset="0" stop-color="#8e00ff"/>
				<stop offset="1" stop-color="#ffb200"/>
			</linearGradient>
		</defs>
	    <g>
			<circle fill="url(#dashboardlg1)" cx="17.97" cy="17.97" r="17.97"/>
			<path d="M15.18,23.89a.67.67,0,0,1-.46-1.15l5.52-5.37L14.72,12a.66.66,0,0,1,0-.94.67.67,0,0,1,1,0l6,5.84a.68.68,0,0,1,0,1l-6,5.85A.7.7,0,0,1,15.18,23.89Z" style="fill:#0b0733;stroke:#0b0733;stroke-miterlimit:10;stroke-width:0.5px"/>
		</g>
   </svg>
   
   <svg viewBox="0 0 54 54" id="star">
		<defs>
			<linearGradient id="dashboardlg2" y1="26.92" x2="53.84" y2="26.92" gradientUnits="userSpaceOnUse">
				<stop offset="0" stop-color="#ffb200"/>
				<stop offset="1" stop-color="#8e00ff"/>
			</linearGradient>
		</defs>
		<g>
			<rect width="53.84" height="53.84" rx="12.01" style="fill:url(#dashboardlg2)"/>
			<path d="M32.08,34.36a1,1,0,0,1-.41-.1l-4.62-2.44-4.61,2.44a.88.88,0,0,1-1.27-.93l.88-5.17L18.31,24.5a.9.9,0,0,1-.22-.9A.88.88,0,0,1,18.8,23L24,22.25l2.31-4.7a.87.87,0,0,1,1.57,0l2.31,4.7,5.16.76a.88.88,0,0,1,.71.59.9.9,0,0,1-.22.9l-3.74,3.66.88,5.17a.88.88,0,0,1-.35.86A.87.87,0,0,1,32.08,34.36Zm-5-4.41a.87.87,0,0,1,.42.1l3.44,1.82L30.25,28a.88.88,0,0,1,.25-.77l2.8-2.74-3.86-.57a.85.85,0,0,1-.66-.48l-1.73-3.51-1.72,3.51a.87.87,0,0,1-.66.48l-3.86.57,2.8,2.74a.88.88,0,0,1,.25.77l-.66,3.87,3.44-1.82A.86.86,0,0,1,27.05,30Z" style="fill:#e2e3fc"/>
		</g>
   </svg>
   
   <svg viewBox="0 0 22 22" id="buttonminus">
		<circle cx="10.98" cy="10.98" r="10.48" style="fill:none;stroke:#e1e1fd;stroke-miterlimit:10"/>
		<line x1="4.76" y1="11.21" x2="17.2" y2="11.21" style="fill:none;stroke:#e1e1fd;stroke-miterlimit:10"/>
   </svg>
   
   <svg viewBox="0 0 22 22" id="buttonplus">
		<circle cx="10.98" cy="10.98" r="10.48" style="fill:none;stroke:#e1e1fd;stroke-miterlimit:10"/>
		<line x1="4.76" y1="11.21" x2="17.2" y2="11.21" style="fill:none;stroke:#e1e1fd;stroke-miterlimit:10"/>
		<line x1="10.98" y1="16.89" x2="10.98" y2="4.45" style="fill:none;stroke:#e1e1fd;stroke-miterlimit:10"/>
   </svg>
   
   <svg viewBox="0 0 17 17" id="buttonplusdark">
		<circle cx="8.01" cy="8.01" r="7.51" style="fill:none;stroke:#615d86;stroke-miterlimit:10"/>
		<line x1="3.55" y1="8.18" x2="12.47" y2="8.18" style="fill:none;stroke:#615d86;stroke-miterlimit:10"/>
		<line x1="8.01" y1="12.25" x2="8.01" y2="3.33" style="fill:none;stroke:#615d86;stroke-miterlimit:10"/>
   </svg>
   
   <svg viewBox="0 0 6 4" id="dropdownarrow">
		<polyline points="0.37 0.34 2.59 2.83 4.79 0.33" style="fill:none;stroke:#e1e1fd;stroke-miterlimit:10"/>
   </svg>
   
   <svg viewBox="0 0 16 16" id="edit">
		<path d="M2.88,15.38H1.07A1,1,0,0,1,0,14.32V10.67a1.16,1.16,0,0,1,.36-.86L9.79.39A.94.94,0,0,1,10.62,0a1.43,1.43,0,0,1,.64.28q1.92,1.89,3.81,3.81a1,1,0,0,1,0,1.44L5.57,15a1.14,1.14,0,0,1-.85.36C4.1,15.37,3.49,15.38,2.88,15.38Zm7.68-13-.05,0L2,10.87a.44.44,0,0,0-.11.29q0,1,0,2.07c0,.07,0,.14,0,.23h.29c.64,0,1.28,0,1.92,0a.58.58,0,0,0,.45-.19L12.85,5,13,4.84Z" style="fill:#615d86"/>
   </svg>
   
   <svg viewBox="0 0 22 22" id="radiobutton">
		<circle cx="10.98" cy="10.98" r="10.48" style="fill:none;stroke:#fdb82d;stroke-linecap:round;stroke-linejoin:round"/>
		<circle cx="10.98" cy="10.98" r="7.25" style="fill:#fdb82d"/>
   </svg>
   
   <svg viewBox="0 0 15 16" id="refresh">
		<path d="M7,15.1a7.75,7.75,0,0,1-1-.07,7,7,0,0,1-6-7.91,7,7,0,0,1,7.9-6,7,7,0,0,1,4.14,2.11.89.89,0,1,1-1.29,1.22,5.25,5.25,0,1,0,1.4,4.33A5,5,0,0,0,12,6.55a.9.9,0,0,1,.6-1.11.88.88,0,0,1,1.1.59A6.87,6.87,0,0,1,14,9,7,7,0,0,1,7,15.1Z" style="fill:#615d86"/>
		<path d="M8.5,5.35a.89.89,0,0,1-.09-1.77l2.35-.25L10.51,1A.89.89,0,0,1,12.27.79L12.62,4a.89.89,0,0,1-.79,1l-3.24.35Z" style="fill:#615d86"/>
   </svg>
   
   <svg viewBox="0 0 18 18" id="settings">
		<path d="M8.57,14.89a6.32,6.32,0,1,1,6.32-6.32A6.32,6.32,0,0,1,8.57,14.89ZM8.57,4a4.6,4.6,0,1,0,4.6,4.59A4.6,4.6,0,0,0,8.57,4Z" style="fill:#615d86"/><path d="M8.57,3.44a.85.85,0,0,1-.85-.86V.86a.86.86,0,1,1,1.71,0V2.58A.85.85,0,0,1,8.57,3.44Z" style="fill:#615d86"/>
		<path d="M8.57,17.15a.85.85,0,0,1-.85-.86V14.57a.86.86,0,1,1,1.71,0v1.72A.85.85,0,0,1,8.57,17.15Z" style="fill:#615d86"/>
		<path d="M2.58,9.43H.86a.86.86,0,1,1,0-1.71H2.58a.86.86,0,1,1,0,1.71Z" style="fill:#615d86"/>
		<path d="M16.29,9.43H14.57a.86.86,0,1,1,0-1.71h1.72a.86.86,0,1,1,0,1.71Z" style="fill:#615d86"/>
		<path d="M12.81,5.19a.82.82,0,0,1-.6-.25.85.85,0,0,1,0-1.21l1.22-1.22a.86.86,0,0,1,1.21,1.21L13.42,4.94A.85.85,0,0,1,12.81,5.19Z" style="fill:#615d86"/>
		<path d="M3.12,14.89a.86.86,0,0,1-.61-1.46l1.22-1.22a.86.86,0,0,1,1.21,1.21L3.72,14.64A.82.82,0,0,1,3.12,14.89Z" style="fill:#615d86"/>
		<path d="M4.34,5.19a.85.85,0,0,1-.61-.25L2.51,3.72A.86.86,0,0,1,3.72,2.51L4.94,3.73a.85.85,0,0,1,0,1.21A.82.82,0,0,1,4.34,5.19Z" style="fill:#615d86"/>
		<path d="M14,14.89a.82.82,0,0,1-.6-.25l-1.22-1.22a.86.86,0,0,1,1.21-1.21l1.22,1.22A.86.86,0,0,1,14,14.89Z" style="fill:#615d86"/>
		<path d="M8.61,11.4a2.83,2.83,0,1,1,2.83-2.83A2.83,2.83,0,0,1,8.61,11.4Zm0-4.07A1.25,1.25,0,1,0,9.85,8.57,1.25,1.25,0,0,0,8.61,7.33Z" style="fill:#615d86"/>
   </svg>
   
   <svg viewBox="0 0 20 21" id="alarmclear">
		<path d="M1,10.72a8.62,8.62,0,0,1,6.69-8.4" style="fill:none;stroke:#e3e1f1;stroke-linecap:round;stroke-miterlimit:10;stroke-width:2px"/>
		<polyline points="6.77 8.69 10.44 12.36 18 1" style="fill:none;stroke:#e3e1f1;stroke-linecap:round;stroke-miterlimit:10;stroke-width:2px"/>
		<line x1="18.68" y1="10.8" x2="18.68" y2="10.8" style="fill:none;stroke:#e3e1f1;stroke-linecap:round;stroke-miterlimit:10;stroke-width:2px"/>
		<path d="M17.54,15.15A8.86,8.86,0,0,1,3.88,17.34" style="fill:none;stroke:#e3e1f1;stroke-linecap:round;stroke-miterlimit:10;stroke-width:2px;stroke-dasharray:0,4.536973476409912"/>
		<line x1="2.41" y1="15.61" x2="2.41" y2="15.61" style="fill:none;stroke:#e3e1f1;stroke-linecap:round;stroke-miterlimit:10;stroke-width:2px"/>
   </svg>
   
   <svg viewBox="0 0 22 20" id="alarmack">
		<path d="M13.37,5.52a3.35,3.35,0,1,0,3.35,3.33A3.34,3.34,0,0,0,13.37,5.52Zm0,5.22a1.88,1.88,0,1,1,1.86-1.88A1.87,1.87,0,0,1,13.39,10.74Z" style="fill:#e3e1f1"/>
		<path d="M21.48,9.07V9a1.1,1.1,0,0,0,0-.18.63.63,0,0,0,0-.19v0l0-.07s0-.06,0-.09A8.74,8.74,0,0,0,13.25,3.1a8.45,8.45,0,0,0-8,5.56l0,.08a.27.27,0,0,0,0,.08v0a1.1,1.1,0,0,0,0,.18.57.57,0,0,0,0,.18v0l0,.07,0,.08a8.74,8.74,0,0,0,8.16,5.4,8.45,8.45,0,0,0,8-5.57s0-.05,0-.07Zm-8,4.25A7.14,7.14,0,0,1,6.71,9a6.88,6.88,0,0,1,6.55-4.43A7.14,7.14,0,0,1,20,8.89,6.88,6.88,0,0,1,13.44,13.32Z" style="fill:#e3e1f1"/><path d="M1,9.4A8.62,8.62,0,0,1,7.69,1" style="fill:none;stroke:#e3e1f1;stroke-linecap:round;stroke-miterlimit:10;stroke-width:2px"/>
		<line x1="9.84" y1="18.32" x2="9.84" y2="18.32" style="fill:none;stroke:#e3e1f1;stroke-linecap:round;stroke-miterlimit:10;stroke-width:2px"/>
		<path d="M5.61,17.25A8.39,8.39,0,0,1,3.83,16" style="fill:none;stroke:#e3e1f1;stroke-linecap:round;stroke-miterlimit:10;stroke-width:2px;stroke-dasharray:0,4.4003167152404785"/>
		<line x1="2.41" y1="14.29" x2="2.41" y2="14.29" style="fill:none;stroke:#e3e1f1;stroke-linecap:round;stroke-miterlimit:10;stroke-width:2px"/>
   </svg>

   <svg viewBox="0 0 11.61 12.47" id="refreshneutral80">
		<path d="M5.81,12.47A5.24,5.24,0,0,1,5,12.42,5.8,5.8,0,0,1,2.29,2.05,5.78,5.78,0,0,1,6.59.92,5.86,5.86,0,0,1,10,2.67a.74.74,0,1,1-1.07,1,4.22,4.22,0,0,0-2.55-1.3,4.33,4.33,0,0,0-4,6.91,4.33,4.33,0,0,0,7.75-2A4.13,4.13,0,0,0,10,5.41a.73.73,0,0,1,.49-.91.74.74,0,0,1,.92.48,5.82,5.82,0,0,1-5.55,7.49Z" style="fill:#9b99c9"/>
		<path d="M7,4.42A.73.73,0,0,1,7,3l1.94-.21L8.68.81A.75.75,0,0,1,9.34,0a.73.73,0,0,1,.8.66l.29,2.67a.73.73,0,0,1-.66.8L7.1,4.42Z" style="fill:#9b99c9"/>
   </svg>
   
</svg>